<svg xmlns="http://www.w3.org/2000/svg" viewBox="0 0 24 24" width="24" height="24" color="currentColor" fill="none">
    <defs></defs>
    <path fill="currentColor" d="M7.455,2.371 C7.949,2.522 8.391,2.809 8.73,3.199 C9.002,3.513 9.177,3.908 9.401,4.412 L9.441,4.502 L9.843,5.408 L9.887,5.504 C10.13,6.051 10.321,6.479 10.363,6.93 C10.404,7.358 10.344,7.79 10.188,8.191 C10.024,8.613 9.723,8.973 9.34,9.432 L9.272,9.513 C8.792,10.089 8.674,10.246 8.61,10.424 C8.546,10.597 8.52,10.856 8.547,11.038 C8.575,11.229 8.641,11.372 8.941,11.933 C9.751,13.448 10.551,14.249 12.067,15.059 C12.628,15.359 12.771,15.425 12.962,15.453 C13.144,15.48 13.403,15.454 13.576,15.39 C13.754,15.325 13.911,15.208 14.487,14.728 L14.568,14.66 C15.027,14.277 15.387,13.976 15.809,13.812 C16.21,13.656 16.642,13.596 17.07,13.637 C17.521,13.679 17.949,13.87 18.496,14.113 L18.592,14.156 L19.498,14.559 L19.588,14.599 C20.092,14.823 20.487,14.998 20.801,15.27 C21.191,15.609 21.478,16.051 21.629,16.545 C21.751,16.942 21.75,17.374 21.75,17.926 L21.75,18.052 C21.75,18.502 21.75,18.883 21.725,19.2 C21.698,19.535 21.641,19.848 21.5,20.157 C21.199,20.812 20.576,21.378 19.895,21.614 C19.323,21.812 18.741,21.755 18.01,21.684 L17.888,21.672 C13.242,21.224 9.557,19.716 6.921,17.079 C4.284,14.443 2.776,10.758 2.328,6.112 L2.316,5.99 C2.245,5.259 2.188,4.677 2.386,4.105 C2.622,3.424 3.188,2.801 3.843,2.5 C4.152,2.359 4.465,2.302 4.8,2.275 C5.117,2.25 5.498,2.25 5.948,2.25 L5.976,2.25 L6.074,2.25 C6.626,2.25 7.058,2.249 7.455,2.371 Z M5.976,3.75 C5.49,3.75 5.169,3.751 4.919,3.771 C4.68,3.789 4.558,3.823 4.468,3.864 C4.185,3.994 3.905,4.302 3.803,4.596 C3.726,4.821 3.733,5.056 3.821,5.968 C4.246,10.372 5.656,13.693 7.981,16.019 C10.307,18.344 13.628,19.754 18.032,20.179 C18.944,20.267 19.179,20.274 19.404,20.197 C19.698,20.095 20.006,19.815 20.136,19.532 C20.177,19.442 20.211,19.32 20.229,19.081 C20.249,18.831 20.25,18.51 20.25,18.024 C20.25,17.327 20.242,17.138 20.195,16.984 C20.126,16.758 19.995,16.557 19.817,16.403 C19.695,16.297 19.526,16.213 18.889,15.93 L17.983,15.527 C17.293,15.221 17.104,15.146 16.928,15.13 C16.733,15.111 16.536,15.139 16.353,15.21 C16.189,15.274 16.027,15.397 15.447,15.88 L15.369,15.945 C14.909,16.329 14.544,16.634 14.091,16.799 C13.683,16.948 13.172,17 12.743,16.937 C12.266,16.867 11.893,16.667 11.429,16.419 L11.36,16.382 C9.583,15.432 8.568,14.417 7.618,12.64 L7.581,12.571 C7.333,12.107 7.133,11.734 7.063,11.257 C6.999,10.827 7.052,10.317 7.201,9.909 C7.366,9.456 7.671,9.091 8.055,8.631 L8.12,8.553 C8.603,7.973 8.726,7.811 8.79,7.647 C8.861,7.464 8.889,7.267 8.87,7.072 C8.854,6.897 8.779,6.707 8.473,6.017 L8.07,5.111 C7.787,4.474 7.703,4.305 7.597,4.183 C7.443,4.005 7.241,3.874 7.016,3.805 C6.862,3.758 6.673,3.75 5.976,3.75 Z M18.25,3 L18.25,5.75 L21,5.75 C21.414,5.75 21.75,6.086 21.75,6.5 C21.75,6.914 21.414,7.25 21,7.25 L18.25,7.25 L18.25,10 C18.25,10.414 17.914,10.75 17.5,10.75 C17.086,10.75 16.75,10.414 16.75,10 L16.75,7.25 L14,7.25 C13.586,7.25 13.25,6.914 13.25,6.5 C13.25,6.086 13.586,5.75 14,5.75 L16.75,5.75 L16.75,3 C16.75,2.586 17.086,2.25 17.5,2.25 C17.914,2.25 18.25,2.586 18.25,3 Z"></path>
</svg>